<svg width="64" height="64" viewBox="0 0 64 64" fill="none" xmlns="http://www.w3.org/2000/svg">
<rect width="64" height="64" fill="#E2E8F0"/>
<path fill-rule="evenodd" clip-rule="evenodd" d="M20.6404 11.6548C24.3675 11.2223 28.1581 11 32 11C35.8419 11 39.6325 11.2223 43.3596 11.6548C46.3543 12.0024 48.5 14.5744 48.5 17.514V47C48.5 50.3137 45.8137 53 42.5 53H21.5C18.1863 53 15.5 50.3137 15.5 47V17.514C15.5 14.5744 17.6457 12.0024 20.6404 11.6548ZM23 30.5C23 29.6716 23.6716 29 24.5 29H24.515C25.3434 29 26.015 29.6716 26.015 30.5V30.515C26.015 31.3434 25.3434 32.015 24.515 32.015H24.5C23.6716 32.015 23 31.3434 23 30.515V30.5ZM24.5 33.5C23.6716 33.5 23 34.1716 23 35V35.015C23 35.8434 23.6716 36.515 24.5 36.515H24.515C25.3434 36.515 26.015 35.8434 26.015 35.015V35C26.015 34.1716 25.3434 33.5 24.515 33.5H24.5ZM23 39.5C23 38.6716 23.6716 38 24.5 38H24.515C25.3434 38 26.015 38.6716 26.015 39.5V39.515C26.015 40.3434 25.3434 41.015 24.515 41.015H24.5C23.6716 41.015 23 40.3434 23 39.515V39.5ZM24.5 42.5C23.6716 42.5 23 43.1716 23 44V44.015C23 44.8434 23.6716 45.515 24.5 45.515H24.515C25.3434 45.515 26.015 44.8434 26.015 44.015V44C26.015 43.1716 25.3434 42.5 24.515 42.5H24.5ZM27.9951 30.5C27.9951 29.6716 28.6667 29 29.4951 29H29.5101C30.3385 29 31.0101 29.6716 31.0101 30.5V30.515C31.0101 31.3434 30.3385 32.015 29.5101 32.015H29.4951C28.6667 32.015 27.9951 31.3434 27.9951 30.515V30.5ZM29.4951 33.5C28.6667 33.5 27.9951 34.1716 27.9951 35V35.015C27.9951 35.8434 28.6667 36.515 29.4951 36.515H29.5101C30.3385 36.515 31.0101 35.8434 31.0101 35.015V35C31.0101 34.1716 30.3385 33.5 29.5101 33.5H29.4951ZM27.9951 39.5C27.9951 38.6716 28.6667 38 29.4951 38H29.5101C30.3385 38 31.0101 38.6716 31.0101 39.5V39.515C31.0101 40.3434 30.3385 41.015 29.5101 41.015H29.4951C28.6667 41.015 27.9951 40.3434 27.9951 39.515V39.5ZM29.4951 42.5C28.6667 42.5 27.9951 43.1716 27.9951 44V44.015C27.9951 44.8434 28.6667 45.515 29.4951 45.515H29.5101C30.3385 45.515 31.0101 44.8434 31.0101 44.015V44C31.0101 43.1716 30.3385 42.5 29.5101 42.5H29.4951ZM33.0049 30.5C33.0049 29.6716 33.6765 29 34.5049 29H34.5199C35.3483 29 36.0199 29.6716 36.0199 30.5V30.515C36.0199 31.3434 35.3483 32.015 34.5199 32.015H34.5049C33.6765 32.015 33.0049 31.3434 33.0049 30.515V30.5ZM34.5049 33.5C33.6765 33.5 33.0049 34.1716 33.0049 35V35.015C33.0049 35.8434 33.6765 36.515 34.5049 36.515H34.5199C35.3483 36.515 36.0199 35.8434 36.0199 35.015V35C36.0199 34.1716 35.3483 33.5 34.5199 33.5H34.5049ZM33.0049 39.5C33.0049 38.6716 33.6765 38 34.5049 38H34.5199C35.3483 38 36.0199 38.6716 36.0199 39.5V39.515C36.0199 40.3434 35.3483 41.015 34.5199 41.015H34.5049C33.6765 41.015 33.0049 40.3434 33.0049 39.515V39.5ZM34.5049 42.5C33.6765 42.5 33.0049 43.1716 33.0049 44V44.015C33.0049 44.8434 33.6765 45.515 34.5049 45.515H34.5199C35.3483 45.515 36.0199 44.8434 36.0199 44.015V44C36.0199 43.1716 35.3483 42.5 34.5199 42.5H34.5049ZM38 30.5C38 29.6716 38.6716 29 39.5 29H39.515C40.3434 29 41.015 29.6716 41.015 30.5V30.515C41.015 31.3434 40.3434 32.015 39.515 32.015H39.5C38.6716 32.015 38 31.3434 38 30.515V30.5ZM39.5 33.5C38.6716 33.5 38 34.1716 38 35V35.015C38 35.8434 38.6716 36.515 39.5 36.515H39.515C40.3434 36.515 41.015 35.8434 41.015 35.015V35C41.015 34.1716 40.3434 33.5 39.515 33.5H39.5ZM23 21.5C23 20.6716 23.6716 20 24.5 20H39.5C40.3284 20 41 20.6716 41 21.5V23C41 23.8284 40.3284 24.5 39.5 24.5H24.5C23.6716 24.5 23 23.8284 23 23V21.5ZM41 39.5C41 38.6716 40.3284 38 39.5 38C38.6716 38 38 38.6716 38 39.5V44C38 44.8284 38.6716 45.5 39.5 45.5C40.3284 45.5 41 44.8284 41 44V39.5Z" fill="#1E293B"/>
</svg>
